<svg xmlns="http://www.w3.org/2000/svg" width="250" height="250" viewBox="0 0 250 250" fill="none">
<path d="M 199.88,18.09 H 72.96 C 64.15,18.09 51.11,28.15 49.99,38.12 L 49.98,185.71 C 49.98,195.93 56.61,201.09 65.41,200.89 L 199.89,188.49 C 205.78,188.49 207.38,185.09 207.38,181.14 V 24.45 C 207.38,20.85 204.68,18.09 199.88,18.09 Z" fill="#7A4B96"/>
<path d="M 195.18,26.39 L 73.96,18.99 C 66.96,18.99 57.16,29.21 57.16,36.71 L 60.96,197.94 L 65.41,200.89 L 197.18,185.39 L 198.98,181.59 L 200.08,31.09 C 200.08,28.44 198.08,26.39 195.18,26.39 Z" fill="#E8D3B5"/>
<path d="M 194.71,26.39 H 73.49 C 68.14,26.39 60.21,33.89 60.21,37.69 L 61.81,38.79 L 67.11,38.61 H 183.91 C 188.41,38.61 189.91,42.76 189.91,46.06 V 188.94 L 197.41,180.79 C 198.66,179.29 198.71,177.44 198.71,175.44 V 32.29 C 198.71,28.84 197.61,26.39 194.71,26.39 Z" fill="#F5E8D0"/>
<path d="M 50.21,37.69 C 49.89,39.42 49.98,42.01 49.98,44.11 V 185.14 C 49.98,194.49 55.86,200.64 65.41,200.89 L 183.11,201.19 C 188.11,201.19 190.11,197.74 190.11,194.29 V 45.91 C 190.11,41.81 187.71,38.61 183.61,38.61 H 60.21 L 51.41,36.21 C 50.66,36.01 50.36,36.94 50.21,37.69 Z" fill="#9C6BD3"/>
<path d="M 62.81,38.61 L 67.11,38.61 V 200.89 L 62.81,200.64 V 38.61 Z" fill="#7A4B96"/>
<path d="M 11.01,86.82 L 17.41,70.52 C 18.26,68.47 18.11,69.07 18.81,69.62 L 25.71,86.82 V 144.16 C 25.71,147.76 23.01,148.76 19.01,148.76 H 16.46 C 13.31,148.76 11.01,147.06 11.01,144.31 V 86.82 Z" fill="url(#paint0_linear_54_1137)"/>
<path d="M 11.01,131.91 L 25.66,131.61 V 137.41 L 11.01,137.71 V 131.91 Z" fill="#A998AA"/>
<path d="M 11.01,137.71 L 25.66,137.41 V 144.16 C 25.66,147.76 23.01,148.76 19.01,148.76 H 16.46 C 13.31,148.76 11.01,147.06 11.01,144.31 V 137.71 Z" fill="url(#paint1_linear_54_1137)"/>
<path d="M 13.66,81.72 L 16.61,74.32 H 20.31 L 23.71,81.72 C 24.41,83.27 25.71,86.47 25.71,86.47 C 22.16,87.82 15.06,87.42 11.01,86.47 C 11.01,86.47 12.96,83.27 13.66,81.72 Z" fill="#F5D0B8"/>
<path d="M 14.91,75.72 L 17.21,70.62 C 17.81,69.37 18.31,69.07 18.81,69.62 L 20.81,73.17 L 21.41,75.72 C 20.16,76.77 16.26,76.82 14.91,75.72 Z" fill="#494949"/>
<path d="M 11.01,105.47 C 6.66,105.47 5,111.12 5,114.92 C 5,120.02 9.41,123.87 11.01,124.52 V 105.47 Z" fill="#673B72"/>
<path d="M 20.06,108.87 C 20.06,106.17 21.81,105.17 23.61,105.17 C 26.86,105.17 30.61,108.17 30.61,111.62 C 30.61,114.92 28.31,117.12 26.01,119.17 C 27.71,121.17 34.91,127.92 43.01,128.92 L 50.11,129.32 V 138.41 C 36.86,137.91 28.46,130.12 25.71,127.92 V 115.72 C 23.91,114.22 20.06,112.42 20.06,108.87 Z" fill="#673B72"/>
<path d="M 225.01,98.02 C 227.71,97.57 228.86,99.92 229.46,102.27 C 232.91,99.72 235.21,96.07 239.91,96.47 C 245.11,96.92 246.11,103.12 244.61,106.67 C 241.91,112.47 237.86,114.87 233.01,116.37 C 223.41,128.72 213.11,134.71 200.01,135.01 V 125.42 C 210.21,125.12 218.71,117.92 224.31,110.72 C 222.36,106.92 221.01,100.02 225.01,98.02 Z" fill="#673B72"/>
<path d="M 103.61,201.09 L 105.21,218.39 L 92.41,221.64 C 86.11,222.74 88.61,231.39 94.31,230.29 L 110.11,226.64 C 113.81,225.69 114.21,224.39 113.81,218.99 L 112.31,201.09 H 103.61 Z" fill="#673B72"/>
<path d="M 141.91,201.09 L 139.41,222.24 C 138.96,225.09 140.41,225.84 143.16,226.59 L 159.61,230.39 C 165.61,231.69 166.71,222.69 160.71,221.34 L 148.61,218.14 L 150.31,201.09 H 141.91 Z" fill="#673B72"/>
<path d="M 96.01,71.12 H 96.81 C 106.26,71.12 112.96,80.32 112.96,89.72 V 93.92 C 112.96,101.07 111.41,107.22 107.61,108.32 C 100.21,103.42 90.41,100.92 80.01,100.92 C 79.11,98.02 78.81,95.07 78.81,91.22 C 78.81,80.57 86.01,71.12 96.01,71.12 Z" fill="#FEFFFE" stroke="#B7B7B7" stroke-width="0.75" stroke-miterlimit="10"/>
<path d="M 157.41,71.12 H 158.61 C 168.21,71.12 174.91,80.47 174.91,89.72 V 92.42 C 174.91,95.72 174.46,98.82 173.81,100.82 C 163.26,100.27 153.06,103.52 145.61,108.32 C 141.31,107.12 140.21,100.82 140.21,94.82 V 91.22 C 140.21,80.57 147.41,71.12 157.41,71.12 Z" fill="#FEFFFE" stroke="#B7B7B7" stroke-width="0.75" stroke-miterlimit="10"/>
<path d="M 100.21,80.52 C 97.91,80.52 96.51,81.42 95.11,82.92 C 96.61,83.77 97.46,84.77 97.46,86.32 C 97.46,89.32 95.51,90.72 92.81,90.72 C 91.91,90.72 90.71,90.32 89.91,89.52 C 89.71,91.07 89.71,91.92 89.71,93.12 C 89.71,99.02 90.51,102.32 92.01,102.72 C 97.11,103.72 101.01,105.32 104.21,106.72 C 107.71,104.07 108.71,100.02 108.71,94.02 V 92.27 C 108.71,85.67 105.41,80.52 100.21,80.52 Z" fill="#234961"/>
<path d="M 155.21,80.22 C 153.21,80.22 151.71,80.82 150.01,81.87 C 151.76,82.72 152.61,83.92 152.61,85.82 C 152.61,88.82 150.66,90.22 148.71,90.22 C 147.21,90.22 146.31,89.77 145.21,88.62 C 144.81,90.32 144.71,91.67 144.71,93.12 V 94.82 C 144.71,99.72 146.21,103.42 149.91,105.52 C 154.11,103.62 158.31,102.17 162.91,101.42 C 163.91,99.22 163.91,96.62 163.91,93.02 V 91.82 C 163.91,85.22 160.41,80.22 155.21,80.22 Z" fill="#234961"/>
<path d="M 115.31,112.12 C 110.91,111.22 108.91,114.62 108.91,117.82 C 108.91,126.02 115.11,135.22 127.31,135.22 C 137.91,135.22 145.01,123.72 145.01,117.22 C 145.01,113.92 143.01,111.62 138.91,112.12 C 132.01,113.12 127.01,114.32 115.31,112.12 Z" fill="#991913" stroke="#991913" stroke-width="0.75" stroke-miterlimit="10"/>
<path d="M 129.11,124.52 C 122.21,124.52 118.21,127.62 116.61,131.61 C 119.41,133.91 123.11,135.16 127.31,135.16 C 133.01,135.16 137.81,131.76 140.81,127.62 C 138.71,125.92 135.41,124.52 129.11,124.52 Z" fill="url(#paint2_linear_54_1137)"/>
<defs>
<linearGradient id="paint0_linear_54_1137" x1="18.3592" y1="69.3049" x2="18.3592" y2="148.76" gradientUnits="userSpaceOnUse">
<stop stop-color="#F6B036"/>
<stop offset="0.963542" stop-color="#F69236"/>
</linearGradient>
<linearGradient id="paint1_linear_54_1137" x1="18.3365" y1="137.361" x2="18.3365" y2="148.76" gradientUnits="userSpaceOnUse">
<stop stop-color="#E97880"/>
<stop offset="1" stop-color="#EA7779"/>
</linearGradient>
<linearGradient id="paint2_linear_54_1137" x1="128.71" y1="124.516" x2="128.71" y2="135.161" gradientUnits="userSpaceOnUse">
<stop stop-color="#EF626C"/>
<stop offset="1" stop-color="#F3767A"/>
</linearGradient>
</defs>
</svg>